<svg id="warren" xmlns="http://www.w3.org/2000/svg" viewBox="0 0 200 200"><defs><style>.cls-1{fill:#efc7b0;}.cls-2{fill:#fff;}</style></defs><g id="warren-2" data-name="warren"><path class="cls-1" d="M96.63,178.61c-21.78,0-36.1-15.48-43.75-47.32V92.78c0-26,19.62-47.16,43.75-47.16h13.22c24.13,0,43.76,21.15,43.76,47.16v38.48c-10.14,35.84-20.78,47.35-43.76,47.35Z"/><path d="M109.85,47c23.36,0,42.37,20.53,42.37,45.77v38.29c-9.9,34.93-20.22,46.16-42.37,46.16H96.63c-21,0-34.87-15.08-42.37-46.1V92.78c0-25.24,19-45.77,42.37-45.77h13.22m0-2.78H96.63C71.7,44.23,51.49,66,51.49,92.78v38.67C58.45,160.53,71.7,180,96.63,180h13.22c24.93,0,35.4-14,45.14-48.55V92.78c0-26.81-20.21-48.55-45.14-48.55Z"/><path d="M145.32,32.75c-10.48-6-29.45-12.48-38.18-12.48S82.66,17.05,81.43,32.75c0,.28,0,.56,0,.83-.6.06-1.16.08-1.79.17-8.83.52-25.95-8.48-28.95,0s-15,27.68-14,35.8S51.49,121.1,51.49,124.6C55,94.65,62.68,61.2,70.67,58.71,76.31,57,83.93,53.2,90.91,51.33c4.32,4.85,9,9.21,11.49,12.37,5.49,7,5.49,12,4.74,14,7.23-2.5,9.23-11,9.23-11a14.45,14.45,0,0,1,0,11c8-2.5,10.48-14,10.48-14,.5,8,1,13,0,14,6.49-5,7-15,7-15,3.5,2.5,9.49,12,13.48,17.47S152,115.11,155,119.1c3-15,4.81-41.42,7.8-53.4S155.8,38.74,145.32,32.75Z"/><path d="M140.25,91.15h-11a21,21,0,0,0-18.13,10.51c-4.81-2-12.81-1.34-16.86.09A21,21,0,0,0,76.1,91.15h-11a21,21,0,0,0,0,41.93h11a21,21,0,0,0,21-21,20.78,20.78,0,0,0-1.52-7.78c3.46-1.1,10.49-1.6,14.32-.1a20.7,20.7,0,0,0-1.56,7.88,21,21,0,0,0,21,21h11a21,21,0,0,0,0-41.93ZM76.1,130.21h-11a18.09,18.09,0,0,1,0-36.18h11a18.09,18.09,0,0,1,0,36.18Zm64.15,0h-11a18.09,18.09,0,0,1,0-36.18h11a18.09,18.09,0,0,1,0,36.18Z"/><path d="M140.59,86.68c-4.77-2.35-13.43-3.37-22.64-4.29l.29-2.86c9.84,1,18.41,2,23.62,4.58Z"/><path d="M64.5,87.41l-1-2.71c4.57-1.62,19.14-5,25-4.18l-.37,2.85C83.31,82.72,69.48,85.64,64.5,87.41Z"/><path d="M102.06,150.92c-3.43,0-6.73-.45-9.13-1.69l1.32-2.55c4.23,2.19,13.15,1.47,19.64-.12l.69,2.79A56.21,56.21,0,0,1,102.06,150.92Z"/><circle cx="76.1" cy="103.59" r="2.16"/><circle cx="126.78" cy="102.72" r="2.16"/><path d="M68.14,104.47a12.51,12.51,0,0,1,8.07-3.18c2.94-.12,6.2.83,8.07,3.18a23.35,23.35,0,0,0-8-1A57.48,57.48,0,0,0,68.14,104.47Z"/><path d="M119.49,103.41a12.51,12.51,0,0,1,8.07-3.18c2.94-.12,6.2.83,8.07,3.18a23.35,23.35,0,0,0-8-1A57.67,57.67,0,0,0,119.49,103.41Z"/><path class="cls-2" d="M95.49,133.16a3.24,3.24,0,0,1,4,.88"/><path d="M98.4,135c-.39-.49-1-1-2.4-.45l-1-2.68a4.7,4.7,0,0,1,5.67,1.32Z"/><path class="cls-2" d="M105.21,133.16a3.23,3.23,0,0,1,4,.88"/><path d="M108.12,135c-.39-.49-1-1-2.39-.45l-1-2.68a4.71,4.71,0,0,1,5.68,1.32Z"/></g></svg>