<svg id="Layer_6" data-name="Layer 6" xmlns="http://www.w3.org/2000/svg" viewBox="0 0 200 200"><defs><style>.cls-1{fill:#f1dbcb;}.cls-2{fill:#42210b;}.cls-3{fill:#c1272d;}.cls-4{fill:#526600;}.cls-5{fill:#93278f;}</style></defs><path class="cls-1" d="M92.37,168.72h0c-12.84,0-26.77-16.91-35.12-40.24L48.73,41H136l-6.82,87.51C125.7,153.22,106.07,168.72,92.37,168.72Z"/><path class="cls-2" d="M134.18,42.68l-6.67,85.61a49.93,49.93,0,0,1-14.1,28.37C106.85,163.14,99,167,92.37,167c-11.64,0-25.07-15.62-33.44-38.91L50.61,42.68h83.57M136,41H48.73l8.52,87.51c8.35,23.33,22.28,40.24,35.12,40.24h0c13.7,0,33.33-15.5,36.83-40.24L136,41Z"/><path class="cls-2" d="M103.91,15c-9-6.19-22.52-7.6-42.78,5.16C48.77,27.93,35.07,57.58,41.07,77c2.71,8.75,8.82,26.44.38,37.93s-10.7,30.72,0,43.1,22.45,21,16.26,30.57c9-8.72,10.9-15.63,10.57,1.43,11-4.07,11.81-18.49,12.66-2.31,8.69-11.23,1.83-26-10.33-35.9-10.84-8.87-12.94-66.95-12.94-76,2.82,6.75,5.54,10.81,12.29,12.4-5.25-8.34-7-13-7.06-20.92C69,81.39,72.58,84.12,80.09,86.74c-7.51-9-3.19-22.23-2.63-26.17,2.63,14.17,8.26,4,8.26,20.54C106.54,75.21,110.66,42,110.66,42c2.25,17.45,4.69,31.42,2.44,36.49,10.13-4.5,15-20.73,15-20.73-3.38,11.81-2.32,22.51-2.32,28.7s-2.81,21.38-6.19,27.85c6.19-5.34,10.13-8.16,10.69-14.35-4.5,18-2.49,26.91-2.79,34.89s-6.57,17.89-12.2,26.33,6.44,11.23-13.23,18c7.5,5.26,22-1.76,27.09-11.89,1.12,9-8,3.89-8.78,14.73-.28,3.66-4.31-.22-9.94,6,11.26-1.69,20.13,8,27.44-3.82s7.84-15.45,7.68-26.84c3.79,12.88-6.45,24.23,1.43,31.54.1-12.94,7.3-16.82,12.33-24.66,7.88-12.28,6.31-25.56,6.31-36.25S155.12,88.15,154,76.33s-3.26-25.23-14.13-48.49C134.09,15.5,124.56,10,118,9.83,104.47,9.49,103.91,15,103.91,15Z"/><path class="cls-3" d="M90.93,140.5l-.35-.36a5.08,5.08,0,0,0-3.06-1c-1.52-.18-3.25-.38-4.27-1.85l.83-.57c.76,1.1,2.12,1.26,3.56,1.43a6.7,6.7,0,0,1,3.3,1,7.56,7.56,0,0,1,3.83-1.1c1.88-.22,3.66-.42,4.37-2.09l.92.39c-.94,2.21-3.19,2.46-5.17,2.69-1.44.16-2.8.32-3.6,1.12Z"/><ellipse class="cls-4" cx="103.69" cy="98.82" rx="3.75" ry="6.63"/><ellipse class="cls-4" cx="74.37" cy="99.94" rx="3.75" ry="6.63"/><path class="cls-2" d="M90.25,126.13a6,6,0,0,1-4-1.45l1-1.1a4.68,4.68,0,0,0,6,0l1,1.09A6,6,0,0,1,90.25,126.13Z"/><path class="cls-2" d="M114.91,82.58c-4.61-2.92-10.3-2.09-14.87-1.42l-.21-1.46c4.81-.71,10.79-1.58,15.87,1.64Z"/><path class="cls-2" d="M61.66,83.67l-.78-1.24c5.07-3.22,11.06-2.34,15.87-1.64l-.22,1.46C72,81.58,66.28,80.75,61.66,83.67Z"/><path class="cls-5" d="M55.32,97.07c-1,10.81-7.6,31.32-4.88,39.57S67,152,61.13,165.79c-6.7,15.82,8.24-6.57,7.15,24.23,5.51-8.63,5.34-26.34.57-34.63S51.1,141.76,52.75,129.8C54.56,116.68,55.32,97.07,55.32,97.07Z"/><path class="cls-5" d="M141.33,103.44c-3.09,10.69-7.31,17.72-5.34,31.23,2.25-12.66,5.34-15.62,5.34-15.62-8.44,28.84-12.38,35.88-10.41,49.67s-3.56,8.5-7.82,15.25c6.49-5.64,9.23-1.19,13.73-15.25s1.69-30.11,6.47-37.71c-.84,12.66-2.22,28.49,1.43,32.15,1.13-14.91,7-30,3.36-39.09s-5.91-25.42-6.47-31.89A47.67,47.67,0,0,1,141.33,103.44Z"/><path class="cls-5" d="M103.55,52.24a17.38,17.38,0,0,1-.55,5.91,21.45,21.45,0,0,1-6,10.2,17,17,0,0,1-4.92,3.32A48.55,48.55,0,0,0,96,67.45a36.84,36.84,0,0,0,3.25-4.64,37.28,37.28,0,0,0,2.5-5.07A49.87,49.87,0,0,0,103.55,52.24Z"/><path class="cls-5" d="M125.11,38c.14,2.82.36,5.6.45,8.42s.12,5.62,0,8.45a43.39,43.39,0,0,1-1.22,8.44,18.6,18.6,0,0,1-1.54,4,7.44,7.44,0,0,1-2.92,3.11A8.51,8.51,0,0,0,122,67a23.31,23.31,0,0,0,1-4,72.7,72.7,0,0,0,.82-8.25c.17-2.77.24-5.56.4-8.36A58.21,58.21,0,0,1,125.11,38Z"/><path class="cls-5" d="M102.07,39.43a39.89,39.89,0,0,1-.24,6.18,31.57,31.57,0,0,1-1.29,6.1,22.13,22.13,0,0,1-2.77,5.65,14.59,14.59,0,0,1-4.52,4.3,27.64,27.64,0,0,0,3.38-5,35,35,0,0,0,2.29-5.48c.64-1.89,1.12-3.84,1.61-5.8S101.45,41.41,102.07,39.43Z"/><path class="cls-5" d="M61.27,42.11a26.48,26.48,0,0,0-3.76,7.49,56.77,56.77,0,0,0-1.89,8.15c-.23,1.38-.48,2.78-.62,4.15A20,20,0,0,0,54.89,66c.22,2.7,1.4,5.3,2.55,7.9l-.12,0,.56-.36-.46.48-.06.07L57.3,74a18.44,18.44,0,0,1-3.77-7.8,26.6,26.6,0,0,1,.42-8.7,37,37,0,0,1,2.34-8.33A18.37,18.37,0,0,1,61.27,42.11Z"/><path class="cls-5" d="M78.1,30.07a36.76,36.76,0,0,0-3.55,2.4,35,35,0,0,0-3.14,2.81A29.17,29.17,0,0,0,66.54,42a25.5,25.5,0,0,0-2.65,7.84A13.17,13.17,0,0,0,65,58a9.24,9.24,0,0,1-2-3.87,14.07,14.07,0,0,1-.4-4.43A21.83,21.83,0,0,1,65,41.22a27.5,27.5,0,0,1,2.41-3.72,27.14,27.14,0,0,1,3.06-3.19,24.8,24.8,0,0,1,3.59-2.54A20.72,20.72,0,0,1,78.1,30.07Z"/><path class="cls-5" d="M86.15,31a8.73,8.73,0,0,0-2.89,2.74,12.77,12.77,0,0,0-.91,1.76L82,36.4l-.3,1a36.69,36.69,0,0,0-1.37,7.91C80.06,48,80,50.68,80,53.41l.09,8.25a53,53,0,0,1-1.42-8.19,50.6,50.6,0,0,1-.07-8.35,28,28,0,0,1,1.81-8.23,13.68,13.68,0,0,1,2.19-3.67A7.56,7.56,0,0,1,86.15,31Z"/></svg>