<svg id="adrian" xmlns="http://www.w3.org/2000/svg" viewBox="0 0 200 200"><defs><style>.cls-1{fill:#e4b69d;}</style></defs><path class="cls-1" d="M60,57.91l-7.69,44.56S55.55,138.17,57,150s30.41,28.86,30.41,28.86h23.4s24.84-11.2,28.07-25c2.8-11.92,7.8-48.34,7.8-48.34s-5.8-32.2-10.48-43.12S85.74,32.18,60,57.91Z"/><path d="M111.05,180H87.11l-.26-.16c-1.2-.7-29.47-17.45-30.95-29.67-1.44-11.74-4.66-47.25-4.69-47.6v-.15l0-.14L59,57.38l.25-.25C74.41,41.94,95,43.2,106,45.31,120.45,48.1,134.47,55.6,137.22,62c4.68,10.91,10.31,42,10.55,43.36l0,.17,0,.18c-.05.36-5,36.61-7.82,48.44-3.32,14.14-27.66,25.26-28.7,25.72Zm-23.33-2.23h22.84c2.41-1.12,24.32-11.68,27.24-24.1,2.65-11.3,7.37-45.3,7.75-48.06-.47-2.56-6-32.44-10.37-42.7C133,57.8,120.56,50.38,105.54,47.49c-10.44-2-30.06-3.24-44.5,11l-7.6,44.06c.23,2.5,3.28,36.06,4.66,47.39C59.39,160.47,84.87,176.06,87.72,177.77Z"/><path d="M95.14,131.53a18.19,18.19,0,0,1,5.38-.6,13.69,13.69,0,0,1,5.35,1,17.05,17.05,0,0,1-5.39.73A13.25,13.25,0,0,1,95.14,131.53Z"/><path d="M85.35,144c2.26.93,4.7.68,7.09.79a70.41,70.41,0,0,1,7.28.35,10.3,10.3,0,0,0,3.37-.19,13.65,13.65,0,0,1,3.76-.45c1.26.07,2.44.27,3.63.38a5.07,5.07,0,0,0,3.43-.47c-.79,1-2.25,1.16-3.43,1.32s-2.47.08-3.64.13a15.48,15.48,0,0,0-3.4.7,11.6,11.6,0,0,1-3.85.32l-7.23-.74C90,145.81,87.34,145.55,85.35,144Z"/><path d="M93.66,151.54a18.25,18.25,0,0,0,6,.61c2-.06,4-.33,6.18-.54a9.87,9.87,0,0,1-6.12,2.28C97.57,154,95.06,153.37,93.66,151.54Z"/><path d="M110.35,91.17a58.43,58.43,0,0,1,13.23-7.54,42,42,0,0,1,7.3-2.44,11.41,11.41,0,0,1,4-.14c1.26.27,2.73.71,3.39,1.88-1-.91-2.29-.8-3.45-.78a14,14,0,0,0-3.48.79c-2.25.81-4.54,1.9-6.85,2.87C119.86,87.73,115.25,89.66,110.35,91.17Z"/><path d="M88,90.45c-4.85-1.38-9.43-3.06-14.09-4.58a40.91,40.91,0,0,0-6.85-2,5.44,5.44,0,0,0-5.78,2.72c.08-2.71,3.15-4.62,5.85-4.56s5.15.88,7.53,1.59A47.43,47.43,0,0,1,88,90.45Z"/><circle cx="121.3" cy="100.42" r="1.97"/><ellipse cx="80.61" cy="101.07" rx="4.47" ry="5.94"/><ellipse cx="120.25" cy="101.07" rx="4.47" ry="5.94"/><path d="M96.55,135.52a1,1,0,0,0,0,2A1,1,0,1,0,96.55,135.52Z"/><path d="M102.72,135.52a1,1,0,1,0,0,2A1,1,0,1,0,102.72,135.52Z"/><path d="M109,135.58a1,1,0,1,0,0,2A1,1,0,1,0,109,135.58Z"/><path d="M116.17,137.34a.94.94,0,0,0-.27-.45l-.22-.16a1.08,1.08,0,0,0-.53-.14H115a.91.91,0,0,0-.41.09.81.81,0,0,0-.34.21.87.87,0,0,0-.22.32.92.92,0,0,0-.09.39l0,.27a.94.94,0,0,0,.27.45l.21.16a1.14,1.14,0,0,0,.54.14h.11a1,1,0,0,0,.41-.09.81.81,0,0,0,.34-.21.75.75,0,0,0,.21-.32.71.71,0,0,0,.09-.4Z"/><path d="M89.13,136l-.16-.2a1.09,1.09,0,0,0-.47-.26l-.28,0a1.08,1.08,0,0,0-.53.14l-.23.12a.73.73,0,0,0-.29.26.68.68,0,0,0-.19.34.72.72,0,0,0,0,.41.71.71,0,0,0,.12.37l.17.21a1.1,1.1,0,0,0,.46.26l.28,0a1.07,1.07,0,0,0,.53-.13l.23-.12a.76.76,0,0,0,.3-.26.85.85,0,0,0,.19-.35.77.77,0,0,0,0-.4A.79.79,0,0,0,89.13,136Z"/><path d="M83.35,137.27a1,1,0,0,0-.27-.44l-.22-.16a1.08,1.08,0,0,0-.53-.14H82a.78.78,0,0,0-.4.08,1,1,0,0,0-.34.21.8.8,0,0,0-.22.33.86.86,0,0,0-.09.39l0,.27a1,1,0,0,0,.27.45l.21.16a1.09,1.09,0,0,0,.53.13h.35a1,1,0,0,0,.41-.09.81.81,0,0,0,.34-.21.72.72,0,0,0,.21-.33.66.66,0,0,0,.09-.39Z"/><path d="M79.14,142.1a1,1,0,0,0,0,2A1,1,0,1,0,79.14,142.1Z"/><path d="M86.64,150.4a.43.43,0,0,0,0-.16l-.1-.24a1.09,1.09,0,0,0-.38-.36l-.13-.06-.13-.05-.29,0-.14,0a.8.8,0,0,0-.4.12.92.92,0,0,0-.22.17l-.09.1s-.06.07-.08.11a.58.58,0,0,0-.05.11.73.73,0,0,0-.06.14,1,1,0,0,0,0,.15s0,.1,0,.14h0l0,.27v0a.91.91,0,0,0,.11.25h0l.17.21a.69.69,0,0,0,.22.16l.25.11.29,0h0l.29,0a.85.85,0,0,0,.26-.11.73.73,0,0,0,.29-.26.68.68,0,0,0,.19-.34.72.72,0,0,0,0-.41S86.64,150.42,86.64,150.4Z"/><path d="M121.73,142.28l-.12-.22a.66.66,0,0,0-.27-.28.89.89,0,0,0-.36-.19.85.85,0,0,0-.42,0,.69.69,0,0,0-.39.12l-.21.16a1,1,0,0,0-.27.44l0,.27a1,1,0,0,0,.14.51l.12.23a.9.9,0,0,0,.27.28.77.77,0,0,0,.36.18.86.86,0,0,0,.42,0,.89.89,0,0,0,.39-.12l.22-.16a1,1,0,0,0,.27-.45l0-.27A.94.94,0,0,0,121.73,142.28Z"/><path d="M116.06,149.38a.87.87,0,0,0-.22-.32.81.81,0,0,0-.34-.21.73.73,0,0,0-.41-.09l-.28,0a.92.92,0,0,0-.46.26l-.17.2a1,1,0,0,0-.14.51v.11a.66.66,0,0,0,.09.39.74.74,0,0,0,.22.33.75.75,0,0,0,.34.21.9.9,0,0,0,.4.09l.28,0a1,1,0,0,0,.47-.26l.16-.2a1,1,0,0,0,.15-.52v-.11A.86.86,0,0,0,116.06,149.38Z"/><path d="M90.29,159.44a1,1,0,0,0,0,2A1,1,0,1,0,90.29,159.44Z"/><path d="M95.78,164.37a.72.72,0,0,0-.21-.33.81.81,0,0,0-.34-.21,1,1,0,0,0-.41-.09l-.28,0a1,1,0,0,0-.46.26c-.06.07-.11.14-.17.2a1,1,0,0,0-.14.52v.11a.66.66,0,0,0,.09.39.69.69,0,0,0,.22.32.72.72,0,0,0,.33.21.75.75,0,0,0,.41.09l.28,0a1,1,0,0,0,.47-.26l.16-.2a.94.94,0,0,0,.14-.51v-.11A.66.66,0,0,0,95.78,164.37Z"/><path d="M96.71,159.37a1,1,0,1,0,0,2A1,1,0,1,0,96.71,159.37Z"/><path d="M102.94,164.6a1,1,0,0,0-.27-.45l-.11-.11a.81.81,0,0,0-.34-.21,1,1,0,0,0-.41-.09.9.9,0,0,0-.4.09.7.7,0,0,0-.34.21l-.17.2a1,1,0,0,0-.14.52,2.51,2.51,0,0,0,0,.27,1,1,0,0,0,.27.44l.11.11a.81.81,0,0,0,.34.21.73.73,0,0,0,.41.09.7.7,0,0,0,.4-.09.75.75,0,0,0,.34-.21l.17-.2a1,1,0,0,0,.14-.51Z"/><path d="M104.76,159.37a1,1,0,1,0,0,2A1,1,0,0,0,104.76,159.37Z"/><path d="M109,164.54a1,1,0,0,0-.27-.44l-.21-.16a1.1,1.1,0,0,0-.53-.14h-.12a.73.73,0,0,0-.41.09.81.81,0,0,0-.34.21.75.75,0,0,0-.21.32.66.66,0,0,0-.09.39l0,.27a1,1,0,0,0,.27.45l.22.16a1.07,1.07,0,0,0,.53.13H108a.78.78,0,0,0,.4-.08.81.81,0,0,0,.34-.21.74.74,0,0,0,.22-.33.86.86,0,0,0,.09-.39Z"/><path d="M111.23,159.83a1,1,0,1,0,0,2A1,1,0,1,0,111.23,159.83Z"/><path d="M114.08,155.26a1,1,0,1,0,0,2A1,1,0,0,0,114.08,155.26Z"/><path d="M86.62,154.25a1,1,0,1,0,0,2A1,1,0,1,0,86.62,154.25Z"/><path d="M40.72,97.83c-2.49-3.28-5-6.66-6.21-10.61s-.74-8.65,2.16-11.57l4,.7a14,14,0,0,1-2.7-23.2C34.52,49,38.5,41.48,43.85,42a6.37,6.37,0,0,1,6.64-10.42c-1.2-5.13,3.52-10.38,8.77-10.84s10.29,2.92,13.06,7.41a13.26,13.26,0,0,1,24.74.72,7.32,7.32,0,0,1,13.68-1.29A10.4,10.4,0,0,1,130.27,33c4.31-3.11,10.43-4.28,15-1.49S151.15,41.67,147,45l6.19-2.1c2.86,4,0,10.59-4.89,11.18,5.8-.79,10.93,6.44,8.27,11.65a9.52,9.52,0,0,0,1.91-10.85c2-.82,4.41.21,5.78,1.89a12.84,12.84,0,0,1,2.29,6c.58,3.36.8,6.88-.32,10.1s-3.85,6-7.23,6.46c2.72,1.88,3.05,6,1.63,9s-4.13,5.12-6.76,7.12a6.61,6.61,0,0,0-2.12,2.22,7.51,7.51,0,0,0-.26,3.89,25.11,25.11,0,0,1-8.06,20.36,65,65,0,0,0,2.39-23.51c-.19-2.32-.85-5.08-3.06-5.82-2-.66-4,.73-6.1,1a5.46,5.46,0,0,1-3.49-10c1.15-.73,2.66-1.13,3.22-2.37.74-1.65-.87-3.47-2.56-4.11s-3.63-.69-5.14-1.68c-3.26-2.15-2.69-7-2.26-10.85s-.85-9.11-4.75-9.22l4.23,9.15c-1.22,2.91-5.49,2.64-8.34,1.29s-6-3.35-8.92-2.22a28.42,28.42,0,0,0-3.27,2,7,7,0,0,1-9.8-8.84c1-2.35,3.28-4.88,1.89-7-1.09-1.69-3.58-1.5-5.52-1a39.32,39.32,0,0,0-14.52,7.61c5.92,5.73,4.6,16.49-1.56,22S66.34,85.77,58.59,83c2-.16-6.77,6.24-5.33,29.73C48.78,111.66,43.61,101.66,40.72,97.83Z"/></svg>