<svg id="Layer_8" data-name="Layer 8" xmlns="http://www.w3.org/2000/svg" viewBox="0 0 200 200"><defs><style>.cls-1{fill:#e4b69d;}.cls-2{fill:#efc7b0;}</style></defs><path class="cls-1" d="M137.93,125.75c6,1.88,10.2-14.16,8.77-21.3-.25-1.23-8.6-1.49-8.6-1.49Z"/><path d="M138.89,126.83a4.14,4.14,0,0,1-1.24-.19l-.66-.21.18-24.43,1,0c9.08.29,9.36,1.66,9.48,2.24,1.21,6-1.25,17.36-5.52,21.19A4.7,4.7,0,0,1,138.89,126.83Zm0-1.86a3,3,0,0,0,2-.89c3.67-3.3,5.94-13.84,5-19.23-.78-.41-3.89-.78-6.8-.92Z"/><path class="cls-1" d="M51.43,100.06c-2.71,6-3.13,19.69,4,20.89.21,0,0-22.3,0-22.3Z"/><path d="M55.39,121.88h-.16a6.79,6.79,0,0,1-4.85-3.75c-2.58-4.85-2-13.61.2-18.44l.16-.36,5.57-2v1.31c.21,22.48.1,22.59-.27,23l-.27.27ZM52.12,100.8c-1.86,4.49-2.3,12.31-.09,16.45a5.28,5.28,0,0,0,2.5,2.49c.06-3.17,0-12.66-.06-19.77Z"/><path class="cls-2" d="M96.43,182.43h0c-9.29,0-17.89-5-21.75-10.56-7.21-10.36-19-18.49-19.72-31.61L53,55.8H139.9l-1.33,88c-2.29,12.39-11.85,15.62-17.4,25.11S106.53,182.43,96.43,182.43Z"/><path d="M138,57.63l-1.29,86c-1.34,7-5.22,10.85-9.33,14.95a46.19,46.19,0,0,0-7.83,9.42c-6.12,10.46-16,12.65-23.16,12.65-8.83,0-16.87-4.91-20.25-9.77a99.66,99.66,0,0,0-7.36-9c-5.93-6.72-11.53-13.06-12-21.64l-2-82.55H138m1.86-1.83H53l2,84.46c.75,13.12,12.51,21.25,19.72,31.61,3.86,5.55,12.46,10.56,21.75,10.56h0c10.1,0,19.23-4.14,24.74-13.55s15.11-12.72,17.4-25.11l1.33-88Z"/><path d="M74.78,138.65a2.79,2.79,0,0,0,1.71,2,11.36,11.36,0,0,0,2.6.87,52.66,52.66,0,0,0,5.53.89l5.66.68c1,.11,1.92.26,2.89.45a12.27,12.27,0,0,1,3.11.94l-1.26,0a13.18,13.18,0,0,1,3.29-.93c1-.18,2.07-.32,3.08-.46l6.06-.68a48.13,48.13,0,0,0,5.9-1,9.6,9.6,0,0,0,5.2-2.7,6.13,6.13,0,0,1-2,2.42,14.32,14.32,0,0,1-2.76,1.59,33.07,33.07,0,0,1-6,1.86c-2,.47-4.06.77-6,1.13-1,.15-2,.31-3,.5a14,14,0,0,0-2.59.73l-.66.29-.59-.32a10.69,10.69,0,0,0-2.34-.72l-2.75-.55c-1.85-.35-3.74-.67-5.62-1.13a34.56,34.56,0,0,1-5.59-1.71,11,11,0,0,1-2.58-1.5,4.63,4.63,0,0,1-1-1.14A2.5,2.5,0,0,1,74.78,138.65Z"/><path d="M122.39,95.49c-6-4.41-11.73-4.45-15.67-.12l-1.35-1.23c4.57-5,11.33-5.08,18.1-.12Z"/><path d="M69.55,96.49,68.1,95.36c5.07-6.5,13.11-5.48,18.46-2.63l-.86,1.61C81,91.82,73.92,90.88,69.55,96.49Z"/><ellipse cx="79.56" cy="107.62" rx="3.65" ry="6.11"/><ellipse cx="111.99" cy="107.62" rx="3.65" ry="6.11"/><path d="M162.12,61.21a32.91,32.91,0,0,1-4-1.6c-2.77-1.76-2.83-5.42-2.6-8.5,3.51.82,7.38-2.25,7-5.53A7.81,7.81,0,0,0,159.72,41a19.3,19.3,0,0,0-16.79-4.1c2.26-2.13,1.07-5.94-1.53-7.72s-11.81-10.5-13.79-3.67c-.88,3.84.19-3.54-3.75-2,.31-2.75.88-7-7.26-5.73-3,.48-3.8,4.65-6.83,4.85-9.1-8-14.82-1.93-13.33,3.3.83-2.29-3.75-5.74-6.38-6.05-3.4-.42-6.81,2.7-9.76,4.31-2.57,1.4-6.71,3.46-6.06,6-1.12-1.75,2.12-6,0-6.9-6.39-2.81-14.76,7.74-12.34,14.57-4.84-6.23-13.22-4-8.15,5.43-1.92-3.28-7.74-2.85-10.38,0s-2.88,6.9-2.62,10.61a17.91,17.91,0,0,0,.83,4.71,2.49,2.49,0,0,0-1.91-.48,4.73,4.73,0,0,0-2.82,2.25c-3.68,5.48-3.56,12.51-1.49,18.66s5.89,11.65,9.39,17.22c3.1,4.92,8.24,12.51,9.47,18,1-11.9,10.13-30.55,5.76-36.18-.36-.46,1.25-10.72,2.94-9.29,2.33,2,4.23,2.17,5.91-.3.72-1.08-3.07-5.55-2.15-6.49,2.32-2.37,3.89,3.13,6.9,4.72,2.09,1.11,1.1-7.31,5.51-6.35.72.15-3.36,4.39-.94,8.06,1.44,2.17,5,1.33,7.66.75.26,1.77,4.8,5.2,6.83,5.33,8.09.5,5.09-6.64,7.71-7.54-.38,3.63,4.42,6,8.32,5.18a13.49,13.49,0,0,0,3.3-1.61c2.7-3.57-1.68-4.15-2-5.2s-.3-2.53.85-2.84c2.9,2.14,8.31,4.07,8.84.71a3,3,0,0,1,3.8-2.82c3.91.68-.31,11.22,3.36,12.17,5.55,1.42,6.6,27.74,12.17,44.94a44.34,44.34,0,0,1,13.17-14.81,5.78,5.78,0,0,0,2.46-2.64c.61-2.08-1.68-4-1.81-6.14-.23-4.13,6.79-5.51,8-9.48.74-2.36-.84-4.74-1.84-7s-1.06-5.52,1.39-6.55c1.54-.65,3.63-.14,4.84-1.24a2.94,2.94,0,0,0,.84-1.85A6.64,6.64,0,0,0,162.12,61.21Z"/><path d="M87.88,151.45a19.94,19.94,0,0,0,16.59-.3,14,14,0,0,1-16.59.3Z"/><path d="M82.7,164.72a.92.92,0,0,0,0-1.83.92.92,0,0,0,0,1.83Z"/><path d="M84.78,169.19a.92.92,0,0,0,0-1.83.92.92,0,0,0,0,1.83Z"/><path d="M90.41,174.25a.92.92,0,0,0,0-1.83.92.92,0,0,0,0,1.83Z"/><path d="M100.83,174.83a.92.92,0,0,0,0-1.83.92.92,0,0,0,0,1.83Z"/><path d="M107.24,173.14a.92.92,0,0,0,0-1.83.92.92,0,0,0,0,1.83Z"/><path d="M113.83,170l.21-.59a.63.63,0,0,0,0-.36.67.67,0,0,0-.1-.34.75.75,0,0,0-.24-.26.71.71,0,0,0-.31-.16l-.24,0a1,1,0,0,0-.47.12l-.18.14a1.06,1.06,0,0,0-.24.41l-.2.58a.63.63,0,0,0,0,.36.58.58,0,0,0,.11.34.65.65,0,0,0,.23.26.79.79,0,0,0,.31.17l.25,0a.84.84,0,0,0,.46-.13l.18-.14a.83.83,0,0,0,.24-.4Z"/><path d="M115.09,163.16a.92.92,0,0,0,0-1.83.92.92,0,0,0,0,1.83Z"/><path d="M119.8,157.52a.92.92,0,0,0,0-1.83.92.92,0,0,0,0,1.83Z"/><path d="M118.76,169.38a.92.92,0,0,0,0-1.83.92.92,0,0,0,0,1.83Z"/><path d="M104.79,179.89a.92.92,0,0,0,0-1.83.92.92,0,0,0,0,1.83Z"/><path d="M105.37,177.75a.92.92,0,0,0,0-1.83.92.92,0,0,0,0,1.83Z"/><path d="M95,181.05a.92.92,0,0,0,0-1.83.92.92,0,0,0,0,1.83Z"/><path d="M87.28,177.94a.92.92,0,0,0,0-1.83.92.92,0,0,0,0,1.83Z"/><path d="M85,172.35l-.42.19a.75.75,0,0,0-.26.24.71.71,0,0,0-.16.31.73.73,0,0,0,0,.36.68.68,0,0,0,.11.34l.14.19a.93.93,0,0,0,.41.23l.24,0a.91.91,0,0,0,.46-.13l.42-.19a.75.75,0,0,0,.26-.24.71.71,0,0,0,.16-.31.73.73,0,0,0,0-.36.76.76,0,0,0-.11-.34l-.15-.19a1,1,0,0,0-.4-.24l-.24,0a.82.82,0,0,0-.46.13Z"/><path d="M79.57,173.66a.92.92,0,0,0,0-1.83.92.92,0,0,0,0,1.83Z"/><path d="M78.74,167.63a.92.92,0,0,0,0-1.83.92.92,0,0,0,0,1.83Z"/><path d="M77.69,156.16a.92.92,0,0,0,0-1.83.92.92,0,0,0,0,1.83Z"/><path d="M79.36,159.85a.92.92,0,0,0,0-1.83.92.92,0,0,0,0,1.83Z"/><path d="M97.08,166.47a.92.92,0,0,0,0-1.83.92.92,0,0,0,0,1.83Z"/><path d="M96.44,171.56a.92.92,0,0,0,0-1.83.92.92,0,0,0,0,1.83Z"/><path d="M117.51,152.27a.92.92,0,0,0,0-1.83.92.92,0,0,0,0,1.83Z"/><path d="M77.2,151v.2a.6.6,0,0,0,.08.35.64.64,0,0,0,.19.3.7.7,0,0,0,.29.19.71.71,0,0,0,.35.07l.24,0a.93.93,0,0,0,.41-.23l.14-.19a.94.94,0,0,0,.13-.46V151a.85.85,0,0,0-.08-.35.7.7,0,0,0-.19-.29,1.06,1.06,0,0,0-.65-.27l-.24,0a.86.86,0,0,0-.4.24l-.15.18a1,1,0,0,0-.12.46Z"/><path d="M87.7,137.66a.92.92,0,0,0,0-1.83.92.92,0,0,0,0,1.83Z"/><path d="M91.87,139.22a.92.92,0,0,0,0-1.83.92.92,0,0,0,0,1.83Z"/><path d="M99.37,139.22a.92.92,0,0,0,0-1.83.92.92,0,0,0,0,1.83Z"/><path d="M104,137.66a.92.92,0,0,0,0-1.83.92.92,0,0,0,0,1.83Z"/><path d="M109.59,137.66a.92.92,0,0,0,0-1.83.92.92,0,0,0,0,1.83Z"/><path d="M82.07,138.28a.92.92,0,0,0,0-1.83.92.92,0,0,0,0,1.83Z"/><path d="M72.69,142.74a.92.92,0,0,0,0-1.83.92.92,0,0,0,0,1.83Z"/><path d="M120,142.93a.92.92,0,0,0,0-1.83.92.92,0,0,0,0,1.83Z"/><path d="M119.28,146.53h0l.09-.22h0a.75.75,0,0,0,0-.26h0l0-.24h0l-.09-.22h0l-.15-.18h0l-.19-.14h0l-.22-.09h0l-.24,0h0l-.24,0h0l-.22.09h0l-.18.15h0s-.14.17-.15.18h0l-.09.22h0l0,.25h0l0,.25h0l.09.21h0l.14.19h0a.64.64,0,0,0,.3.19.81.81,0,0,0,.7,0,.64.64,0,0,0,.3-.19l.14-.18a.93.93,0,0,0,.12-.46l0-.25a.9.9,0,0,0-.23-.4h0l.15.18h0l.09.22h0l0,.24h0l0,.24h0l-.09.22h0l-.14.19h0l-.18.14h0l-.22.09h0l-.25,0h0l-.24,0h0l-.22-.09h0l-.19-.14h0l-.14-.18h0l-.09-.22h0l0-.24h0l0-.24h0l.09-.22h0a.7.7,0,0,0-.1.34.67.67,0,0,0,0,.37.68.68,0,0,0,.17.31.69.69,0,0,0,.25.23l.22.09a.82.82,0,0,0,.49,0l.22-.09a.92.92,0,0,0,.32-.33Z"/><path d="M76.24,147.41a.92.92,0,0,0,0-1.83.92.92,0,0,0,0,1.83Z"/><path d="M122,164.72a.92.92,0,0,0,0-1.83.92.92,0,0,0,0,1.83Z"/><path d="M111.05,177.75a.92.92,0,0,0,0-1.83.92.92,0,0,0,0,1.83Z"/><path d="M95.34,176.49a.92.92,0,0,0,0-1.83.92.92,0,0,0,0,1.83Z"/><path d="M100.21,179.3a.92.92,0,0,0,0-1.83.92.92,0,0,0,0,1.83Z"/><path d="M72.27,163.35a.91.91,0,0,0,0-1.82.91.91,0,0,0,0,1.82Z"/><path d="M95.33,133.58H95.1a6.23,6.23,0,0,1-5.92-5.89l1.86,0a4.32,4.32,0,0,0,8.6.33l1.85.19A6.26,6.26,0,0,1,95.33,133.58Z"/></svg>