<svg id="levi" xmlns="http://www.w3.org/2000/svg" viewBox="0 0 200 200"><defs><style>.cls-1{fill:#e0ada6;}.cls-2{fill:#f0beb4;}.cls-3{fill:#fff;}</style></defs><g id="levi-2" data-name="levi"><path class="cls-1" d="M161.23,127.23a8.68,8.68,0,0,1-8.67-8.67V97.71a8.67,8.67,0,0,1,17.34,0v20.85A8.68,8.68,0,0,1,161.23,127.23Z"/><path d="M161.23,90.44a7.28,7.28,0,0,1,7.27,7.27v20.85a7.27,7.27,0,0,1-14.54,0V97.71a7.28,7.28,0,0,1,7.27-7.27m0-2.8h0a10.1,10.1,0,0,0-10.07,10.07v20.85a10.1,10.1,0,0,0,10.07,10.07h0a10.1,10.1,0,0,0,10.07-10.07V97.71a10.1,10.1,0,0,0-10.07-10.07Z"/><path class="cls-1" d="M38.77,127.23a8.68,8.68,0,0,1-8.67-8.67V97.71a8.67,8.67,0,0,1,17.34,0v20.85A8.68,8.68,0,0,1,38.77,127.23Z"/><path d="M38.77,90.44A7.28,7.28,0,0,1,46,97.71v20.85a7.27,7.27,0,1,1-14.54,0V97.71a7.28,7.28,0,0,1,7.27-7.27m0-2.8h0A10.1,10.1,0,0,0,28.7,97.71v20.85a10.1,10.1,0,0,0,10.07,10.07h0a10.1,10.1,0,0,0,10.07-10.07V97.71A10.1,10.1,0,0,0,38.77,87.64Z"/><path class="cls-2" d="M101.27,178.57c-12.61-.44-26.4-6.88-37.84-17.66C53.6,151.65,47,140.49,47,133.14v-34C47,61.84,75.4,32.9,99.84,32.9s52.83,28.94,52.83,66.25v34C152.67,145.79,130.43,177.52,101.27,178.57Z"/><path d="M99.84,34.3c13.1,0,25.91,7.34,36.07,20.66,9.62,12.61,15.36,29.13,15.36,44.18v34c0,11.9-22.16,43-50,44-27.86-1-52.87-30.5-52.87-44v-34c0-15,5.74-31.57,15.36-44.18,10.16-13.32,23-20.66,36.08-20.66m0-2.79C70,31.51,45.6,67,45.6,99.14v34C45.6,148.46,72,179,101.27,180c29.17-1,52.8-32.69,52.8-46.83v-34c0-32.16-24.41-67.63-54.23-67.63ZM101.27,180c-.47,0-1,0-1.43,0h2.9q-.73,0-1.47,0Z"/><path d="M123.79,30.62C115.52,24.76,105.09,20,97.17,20,83.39,20,44.27,38.58,37.6,47.75s8,59.05,8,59.05C47,86.3,54.05,81.18,54.05,81.18s-.33-14.1,3.81-19S76.28,52.6,80.72,52.6c-2.22,7.19-1.78,10.8-1.78,10.8,6.23-8.88,11.56-13.2,20.9-13.68s21.85-1.17,31.37,1.81S140.73,71,141.62,73.31c3.11,3.26,6.67,22.53,12.45,25.83,4-18.26-.45-74-3.11-75.86s-21.79-3.76-24.45,5.35Z"/><path d="M90,127l-33.17-5.81c-8-1.79-7.76-4.36-7.76-9.73v-6.57c0-5.37,5-9.73,11.07-9.73H90c6.12,0,11.08,4.36,11.08,9.73v6.57C101.1,116.79,96.14,127,90,127Z"/><path d="M145.34,121.15,112.18,127c-6.12,0-11.08-10.17-11.08-15.54v-6.57c0-5.37,5-9.73,11.08-9.73H142c6.12,0,11.08,4.36,11.08,9.73v6.57C153.11,116.79,152.32,119.52,145.34,121.15Z"/><path d="M110.61,95.12a38.71,38.71,0,0,1,8.64-4.2c1.49-.54,3-1,4.52-1.41s3.06-.77,4.62-1.05l1-.18.47.5a35.85,35.85,0,0,1,5,6.34,35.77,35.77,0,0,1-7.09-3.92l1.45.32c-1.48.57-3,1.08-4.49,1.52s-3,.84-4.59,1.15A38.18,38.18,0,0,1,110.61,95.12Z"/><path d="M63.63,95.12A30.51,30.51,0,0,1,66.7,91.7c1.08-1.07,2.21-2.06,3.36-3l.45-.38.87.15c1.68.28,3.34.65,5,1.06s3.28.86,4.89,1.42a44.81,44.81,0,0,1,9.42,4.2A45.3,45.3,0,0,1,80.4,94.2c-1.68-.31-3.32-.72-5-1.15s-3.26-.94-4.87-1.51l1.32-.24c-1.3.75-2.62,1.47-4,2.11A31.42,31.42,0,0,1,63.63,95.12Z"/><path d="M101.43,148.21l-.7-.37c-2.1-1.08-9.52-1.75-12.85-1.75v-2.9c2.78,0,10.16.51,13.49,1.77,3.47-1.44,11.1-1.74,12-1.77l.1,2.9c-3.44.12-9.58.69-11.37,1.72Z"/><path d="M88.86,136.68l-.23-.29A1.44,1.44,0,0,0,88,136h0a2.76,2.76,0,0,0-.4-.06h-.07l-.21,0a.88.88,0,0,0-.2,0h0a2.12,2.12,0,0,0-.41.17l0,0,0,0-.31.24-.1.1a2.17,2.17,0,0,0-.3.41,2.43,2.43,0,0,0-.19.47s0,0,0,.06l-.06.41V138c0,.11,0,.28.06.39v0a1.6,1.6,0,0,0,.1.23,2.44,2.44,0,0,0,.1.24c0,.06.1.12.14.17l.13.18,0,0a3.92,3.92,0,0,0,.32.25,1.07,1.07,0,0,0,.54.17,1.14,1.14,0,0,0,.58,0,1.22,1.22,0,0,0,.49-.26,1.15,1.15,0,0,0,.38-.41l.14-.35a.7.7,0,0,0,0-.25c0-.05.12-.08.15-.14a1,1,0,0,0,.26-.49l.06-.39A1.57,1.57,0,0,0,88.86,136.68Z"/><path d="M94.79,135.52a1.45,1.45,0,0,0,0,2.9A1.45,1.45,0,0,0,94.79,135.52Z"/><path d="M103.41,135.52a1.45,1.45,0,0,0,0,2.9A1.45,1.45,0,0,0,103.41,135.52Z"/><path d="M112.52,135.52a1.45,1.45,0,0,0,0,2.9A1.45,1.45,0,0,0,112.52,135.52Z"/><path d="M118.75,138.87a1.46,1.46,0,0,0,0,2.91A1.46,1.46,0,0,0,118.75,138.87Z"/><path d="M120.67,143.67a1.45,1.45,0,0,0,0,2.9A1.45,1.45,0,0,0,120.67,143.67Z"/><path d="M66,157.09a1.45,1.45,0,0,0,0,2.9A1.45,1.45,0,0,0,66,157.09Z"/><path d="M74.17,164.76a1.45,1.45,0,0,0,0,2.9A1.45,1.45,0,0,0,74.17,164.76Z"/><path d="M81.36,160.44a1.46,1.46,0,0,0,0,2.91A1.46,1.46,0,0,0,81.36,160.44Z"/><path d="M88.55,167.64a1.45,1.45,0,0,0,0,2.9A1.45,1.45,0,0,0,88.55,167.64Z"/><path d="M100.06,172.43a1.45,1.45,0,0,0,0,2.9A1.45,1.45,0,0,0,100.06,172.43Z"/><path d="M99.1,165.24a1.45,1.45,0,0,0,0,2.9A1.45,1.45,0,0,0,99.1,165.24Z"/><path d="M115.36,171.58a1.42,1.42,0,0,0-.37-.64l-.3-.23a1.43,1.43,0,0,0-.73-.2h-1a1.1,1.1,0,0,0-.56.13,1.33,1.33,0,0,0-.76.76,1,1,0,0,0-.13.56c0,.13,0,.26,0,.39a1.5,1.5,0,0,0,.38.64l.29.23a1.45,1.45,0,0,0,.73.19h1a1.07,1.07,0,0,0,.56-.12,1.29,1.29,0,0,0,.77-.77,1.07,1.07,0,0,0,.12-.56C115.39,171.83,115.38,171.71,115.36,171.58Z"/><path d="M115.4,163.8a1.45,1.45,0,0,0,0,2.9A1.45,1.45,0,0,0,115.4,163.8Z"/><path d="M125.91,168.22a1.5,1.5,0,0,0-.38-.64l-.29-.23a1.45,1.45,0,0,0-.73-.19H124a1.07,1.07,0,0,0-.56.12,1.29,1.29,0,0,0-.77.77,1.07,1.07,0,0,0-.12.56c0,.13,0,.25,0,.38a1.42,1.42,0,0,0,.37.64l.3.23a1.43,1.43,0,0,0,.73.2h.48a1.1,1.1,0,0,0,.56-.13,1.08,1.08,0,0,0,.46-.3,1,1,0,0,0,.3-.46,1.1,1.1,0,0,0,.13-.56C125.94,168.48,125.92,168.35,125.91,168.22Z"/><path d="M132.66,163.8a1.45,1.45,0,0,0,0,2.9A1.45,1.45,0,0,0,132.66,163.8Z"/><path d="M138.37,160.55a1.48,1.48,0,0,0-.37-.64l-.48-.48a1.12,1.12,0,0,0-.47-.3,1.07,1.07,0,0,0-.56-.12,1.54,1.54,0,0,0-1,.42l-.23.3a1.43,1.43,0,0,0-.2.73c0,.13,0,.25.05.38a1.44,1.44,0,0,0,.38.64l.47.48a1.18,1.18,0,0,0,.47.3,1.27,1.27,0,0,0,1.12,0,1.12,1.12,0,0,0,.47-.3l.22-.29a1.36,1.36,0,0,0,.2-.73C138.41,160.81,138.39,160.68,138.37,160.55Z"/><path d="M128.34,160.44a1.46,1.46,0,0,0,0,2.91A1.46,1.46,0,0,0,128.34,160.44Z"/><path d="M106.29,176.74a1.46,1.46,0,0,0,0,2.91A1.46,1.46,0,0,0,106.29,176.74Z"/><path d="M107.25,170a1.45,1.45,0,0,0,0,2.9A1.45,1.45,0,0,0,107.25,170Z"/><path d="M91.91,174.83a1.45,1.45,0,0,0,0,2.9A1.45,1.45,0,0,0,91.91,174.83Z"/><path d="M93.35,170.51a1.45,1.45,0,0,0,0,2.9A1.45,1.45,0,0,0,93.35,170.51Z"/><path d="M78.49,170a1.45,1.45,0,0,0,0,2.9A1.45,1.45,0,0,0,78.49,170Z"/><path d="M69.38,162.84a1.45,1.45,0,0,0,0,2.9A1.45,1.45,0,0,0,69.38,162.84Z"/><path d="M57.87,151.82a1.45,1.45,0,0,0,0,2.9A1.45,1.45,0,0,0,57.87,151.82Z"/><path d="M141.76,151.34a1.45,1.45,0,0,0,0,2.9A1.45,1.45,0,0,0,141.76,151.34Z"/><path d="M83.16,142.74a1.55,1.55,0,0,0-.4-.69l0,0-.29-.23h0a1.42,1.42,0,0,0-.4-.17,2.32,2.32,0,0,0-.45-.06h0l-.19,0-.2,0h0a2.52,2.52,0,0,0-.41.17l0,0-.29.23h0l-.23.3h0l-.15.35h0a1.62,1.62,0,0,0,0,.21,2.06,2.06,0,0,0,0,.21,1.47,1.47,0,0,0,.06.42,1,1,0,0,0,.26.5,1.09,1.09,0,0,0,.4.37,1,1,0,0,0,.54.17,1.21,1.21,0,0,0,.38,0l.21,0a1.43,1.43,0,0,0,.73-.2l.3-.23a1.42,1.42,0,0,0,.37-.64h0l.06-.39v0A1.93,1.93,0,0,0,83.16,142.74Z"/><path d="M102,138.87a1.46,1.46,0,0,0,0,2.91A1.46,1.46,0,0,0,102,138.87Z"/><path d="M110.13,138.87a1.46,1.46,0,0,0,0,2.91A1.46,1.46,0,0,0,110.13,138.87Z"/><path d="M95.27,138.39a1.46,1.46,0,0,0,0,2.91A1.46,1.46,0,0,0,95.27,138.39Z"/><path d="M145.12,148a1.45,1.45,0,0,0,0,2.9A1.45,1.45,0,0,0,145.12,148Z"/><path d="M108.69,164.28a1.45,1.45,0,0,0,0,2.9A1.45,1.45,0,0,0,108.69,164.28Z"/><path d="M90.47,162.84a1.45,1.45,0,0,0,0,2.9A1.45,1.45,0,0,0,90.47,162.84Z"/><path class="cls-3" d="M139.57,99a8.21,8.21,0,0,1,2.82,2.6,13.13,13.13,0,0,1,1.73,3.32,12.1,12.1,0,0,1,.67,3.73,7.16,7.16,0,0,1-.86,3.77c-1-2.4-1.79-4.38-2.55-6.55A42.67,42.67,0,0,1,139.57,99Z"/><path class="cls-3" d="M85.12,100.22A8,8,0,0,1,88,102.81a13.52,13.52,0,0,1,1.73,3.33,12.29,12.29,0,0,1,.66,3.73,7.19,7.19,0,0,1-.85,3.77c-1-2.41-1.79-4.38-2.56-6.55A43.23,43.23,0,0,1,85.12,100.22Z"/></g></svg>