<svg id="Layer_8" data-name="Layer 8" xmlns="http://www.w3.org/2000/svg" viewBox="0 0 200 200"><defs><style>.cls-1{fill:#e4b69d;}.cls-2{fill:#efc7b0;}</style></defs><path class="cls-1" d="M136.63,123.54c6,1.88,11.5-14.31,10.07-21.45-.25-1.23-8.6-1.49-8.6-1.49Z"/><path d="M137.6,124.62a4.26,4.26,0,0,1-1.25-.19l-.69-.22,1.57-24.57.89,0c9.09.29,9.37,1.65,9.49,2.24,1.11,5.55-1.87,17-6.46,21.15A5.28,5.28,0,0,1,137.6,124.62ZM139,101.56l-1.36,21.2a3.49,3.49,0,0,0,2.3-1.09c3.74-3.36,6.89-13.65,5.92-19.18C145,102.07,141.89,101.7,139,101.56Z"/><path class="cls-1" d="M51.43,97.7c-2.71,6-1.65,19.69,5.44,20.89.21,0-1.48-22.3-1.48-22.3Z"/><path d="M56.87,119.52h-.15a7.82,7.82,0,0,1-5.49-4.4c-2.81-5.27-2.6-13.45-.65-17.79l.16-.37L56.22,95l.1,1.21c1.7,22.5,1.6,22.61,1.24,23l-.28.3ZM52.12,98.44c-1.58,4-1.62,11.36.75,15.79a6.56,6.56,0,0,0,3.06,3.12c-.16-3.27-.84-12.71-1.38-19.78Z"/><path class="cls-2" d="M96.43,180.07h0c-9.29,0-17.15-5.62-21.75-10.56C64.8,158.9,62.4,155,57.53,133.47c-4.64-20.6-4.57-80-4.57-80H139.9s.61,63.6-4.42,85c-3.46,14.66-5.45,19-14.31,28.09C113.56,174.33,106.53,180.07,96.43,180.07Z"/><path d="M138.08,55.27c0,10.51.07,63.82-4.38,82.73-3.48,14.77-5.42,18.59-13.84,27.24-8,8.23-14.43,13-23.43,13-10,0-17.62-7-20.41-10-9.82-10.53-12-14.1-16.7-35.19-4.1-18.15-4.49-67.66-4.53-77.8h83.29m1.82-1.83H53s-.07,59.43,4.57,80c4.87,21.56,7.27,25.43,17.15,36,4.6,4.94,12.46,10.56,21.75,10.56h0c10.1,0,17.13-5.74,24.74-13.56,8.86-9.09,10.85-13.43,14.31-28.09,5-21.38,4.42-85,4.42-85Z"/><path d="M82,139.19a3.06,3.06,0,0,0,2.49,2.39,18,18,0,0,0,3.72.53l3.91.23a16.66,16.66,0,0,1,2,.26,5.41,5.41,0,0,1,2.3.91l-1.37,0a5.68,5.68,0,0,1,2.47-.86,21.93,21.93,0,0,1,2.21-.21l4.21-.13a17,17,0,0,0,4-.58,5.36,5.36,0,0,0,3.2-2.33,5.05,5.05,0,0,1-2.76,3.36,13.81,13.81,0,0,1-4.24,1.31c-1.43.27-2.86.35-4.24.51-.69.06-1.37.13-2,.24a4.5,4.5,0,0,0-1.51.49l-.75.49-.61-.53a3.65,3.65,0,0,0-1.33-.5c-.58-.12-1.21-.21-1.84-.31-1.27-.2-2.58-.34-3.9-.61a14.57,14.57,0,0,1-3.91-1.24,4.63,4.63,0,0,1-1.64-1.38A2.69,2.69,0,0,1,82,139.19Z"/><path d="M105.44,90a7.56,7.56,0,0,1,3.46-3.52,8.56,8.56,0,0,1,5-.62A16.3,16.3,0,0,1,122.45,90l-.11.15a22.43,22.43,0,0,0-4.17-2,11.42,11.42,0,0,0-8.55,0,23.31,23.31,0,0,0-4,2Z"/><path d="M85.55,88.91c-1.64-.28-3.12-.62-4.62-.84a25.87,25.87,0,0,0-4.46-.54,10.72,10.72,0,0,0-4.37,1,12.08,12.08,0,0,0-3.74,2.73l-.14-.11a11.22,11.22,0,0,1,8.13-5.1,11.51,11.51,0,0,1,5,.22,10.14,10.14,0,0,1,4.29,2.46Z"/><ellipse cx="79.56" cy="105.26" rx="3.65" ry="6.11"/><ellipse cx="111.99" cy="105.26" rx="3.65" ry="6.11"/><path d="M162.12,60.14a33.14,33.14,0,0,1-4-1.65c-2.77-1.83-2.83-5.63-2.6-8.82,3.51.85,7.38-2.33,7-5.74a8.13,8.13,0,0,0-2.82-4.73A18.81,18.81,0,0,0,142.93,35c2.26-2.21,1.07-6.17-1.53-8s-13.4-6.78-15.38.3c-.88,4,2.23,4.78-1.71,6.39.31-2.85-.37-10.28-3.21-11.3s-10.79,1.33-13.81,1.54c-9.1-8.34-13.66-1.67-12.18,3.76.83-2.38-2.5-4.07-5.13-4.39-3.4-.43-6.73-3.13-9.68-1.46-2.57,1.46-6.71,3.59-6.06,6.25-1.12-1.81,2.12-6.18,0-7.14C67.85,18,59.48,28.91,61.9,36c-4.84-6.46-13.22-4.16-8.15,5.63-1.92-3.4-7.74-2.95-10.38,0s-2.88,7.15-2.62,11a19.26,19.26,0,0,0,.83,4.89,2.42,2.42,0,0,0-1.91-.5,4.78,4.78,0,0,0-2.82,2.33c-3.68,5.69-3.56,13-1.49,19.35s11.19,12.49,14.7,18.27c3.09,5.1,3.56,12.74,4.79,18.47,1-12.33,9.5-31.86,5.13-37.69-.36-.47,1.25-11.12,2.94-9.63,2.33,2,4.23,2.24,5.91-.32.72-1.11-3.07-5.75-2.15-6.73,2.32-2.45,3.89,3.25,6.9,4.9,2.09,1.15,1.1-7.58,5.51-6.59.72.16-3.36,4.56-.94,8.36,1.44,2.26,5,1.39,7.66.78.26,1.84,4.8,5.39,6.83,5.52,8.09.52,5.09-6.88,7.71-7.81-.38,3.76,4.42,6.21,8.32,5.37A13,13,0,0,0,112,69.9c2.7-3.7-1.68-4.3-2-5.39s-.3-2.63.85-3c2.9,2.22,8.31,4.22,8.84.73.17-1.16.88-3.43,3.8-2.91,3.91.7-.31,11.63,3.36,12.61,5.55,1.48,7.86,27.68,10.37,46.6,3.12-6,4.25-12,9.77-16.07,1-.75,7.32-.84,7.66-2,.61-2.16-1.68-4.14-1.81-6.37-.23-4.28,6.79-5.71,8-9.82.74-2.46-.84-4.92-1.84-7.29s-1.06-5.72,1.39-6.79c1.54-.67,3.63-.14,4.84-1.28A3.12,3.12,0,0,0,166,67,6.93,6.93,0,0,0,162.12,60.14Z"/><path d="M87.88,149.09a20,20,0,0,0,16.59-.3,14,14,0,0,1-16.59.3Z"/><path d="M82,163.61a.91.91,0,0,0,0-1.82.91.91,0,0,0,0,1.82Z"/><path d="M91.87,172.47a.92.92,0,0,0,0-1.83.92.92,0,0,0,0,1.83Z"/><path d="M101.46,172.27a.92.92,0,0,0,0-1.83.92.92,0,0,0,0,1.83Z"/><path d="M108.34,174a.92.92,0,0,0,0-1.83.92.92,0,0,0,0,1.83Z"/><path d="M111.83,169l.2-.59a.63.63,0,0,0,0-.36.6.6,0,0,0-.11-.34.65.65,0,0,0-.23-.26.77.77,0,0,0-.31-.16l-.25,0a.94.94,0,0,0-.46.13l-.18.14a.86.86,0,0,0-.24.41l-.21.58a.63.63,0,0,0,0,.36.65.65,0,0,0,.1.34.67.67,0,0,0,.24.26.62.62,0,0,0,.31.16l.24,0a1,1,0,0,0,.47-.13l.18-.14a1.1,1.1,0,0,0,.24-.4Z"/><path d="M115.63,161.58a.92.92,0,0,0,0-1.83.92.92,0,0,0,0,1.83Z"/><path d="M95,178.69a.92.92,0,0,0,0-1.83.92.92,0,0,0,0,1.83Z"/><path d="M87.28,175.58a.92.92,0,0,0,0-1.83.92.92,0,0,0,0,1.83Z"/><path d="M84.74,168.68l-.42.19a.75.75,0,0,0-.26.24.71.71,0,0,0-.16.31.77.77,0,0,0,0,.37.85.85,0,0,0,.11.34l.15.18a1,1,0,0,0,.4.24l.24,0a.82.82,0,0,0,.46-.13l.42-.19a.75.75,0,0,0,.26-.24.66.66,0,0,0,.16-.31.73.73,0,0,0,0-.36A.68.68,0,0,0,86,169l-.14-.19a.93.93,0,0,0-.41-.23l-.24,0a.9.9,0,0,0-.46.12Z"/><path d="M79.36,157.49a.92.92,0,0,0,0-1.83.92.92,0,0,0,0,1.83Z"/><path d="M95,168a.92.92,0,0,0,0-1.83A.92.92,0,0,0,95,168Z"/><path d="M117.51,149.91a.92.92,0,0,0,0-1.83.92.92,0,0,0,0,1.83Z"/><path d="M77.2,148.6v.2a.62.62,0,0,0,.08.35.85.85,0,0,0,.48.48.62.62,0,0,0,.35.08l.24,0a.86.86,0,0,0,.41-.24l.14-.18a.94.94,0,0,0,.13-.46v-.2a.85.85,0,0,0-.08-.35.7.7,0,0,0-.19-.29.6.6,0,0,0-.3-.19.59.59,0,0,0-.35-.08l-.24,0a.79.79,0,0,0-.4.24l-.15.18a.93.93,0,0,0-.12.46Z"/><path d="M111.05,175.38a.91.91,0,0,0,0-1.82.91.91,0,0,0,0,1.82Z"/><path d="M100.21,176.94a.92.92,0,0,0,0-1.83.92.92,0,0,0,0,1.83Z"/><path d="M95.33,131.22H95.1a6.23,6.23,0,0,1-5.92-5.89l1.86,0a4.32,4.32,0,0,0,8.6.33l1.85.18A6.26,6.26,0,0,1,95.33,131.22Z"/></svg>