<svg width="187" height="54" viewBox="0 0 187 54" fill="none" xmlns="http://www.w3.org/2000/svg">
<path d="M33.3101 0H33.2632C32.229 0 31.3906 0.840609 31.3906 1.87755V7.45537C31.3906 8.49232 32.229 9.33293 33.2632 9.33293H33.3101C34.3442 9.33293 35.1826 8.49232 35.1826 7.45537V1.87755C35.1826 0.840609 34.3442 0 33.3101 0Z" fill="#47DFF8"/>
<path d="M22.0747 0H22.0278C20.9936 0 20.1553 0.840609 20.1553 1.87755V7.45537C20.1553 8.49232 20.9936 9.33293 22.0278 9.33293H22.0747C23.1089 9.33293 23.9472 8.49232 23.9472 7.45537V1.87755C23.9472 0.840609 23.1089 0 22.0747 0Z" fill="#47DFF8"/>
<path d="M10.8369 0H10.79C9.75585 0 8.91748 0.840609 8.91748 1.87755V7.45537C8.91748 8.49232 9.75585 9.33293 10.79 9.33293H10.8369C11.8711 9.33293 12.7094 8.49232 12.7094 7.45537V1.87755C12.7094 0.840609 11.8711 0 10.8369 0Z" fill="#47DFF8"/>
<path d="M39.8183 4.6665H36.4509V7.62776C36.4509 8.38959 36.149 9.12022 35.6118 9.65891C35.0745 10.1976 34.3458 10.5002 33.586 10.5002H33.099C32.3392 10.5002 31.6106 10.1976 31.0733 9.65891C30.536 9.12022 30.2342 8.38959 30.2342 7.62776V4.6665H25.1531V7.62776C25.1531 8.38959 24.8512 9.12022 24.314 9.65891C23.7767 10.1976 23.0481 10.5002 22.2883 10.5002H21.7986C21.0388 10.5002 20.3102 10.1976 19.7729 9.65891C19.2356 9.12022 18.9338 8.38959 18.9338 7.62776V4.6665H13.8527V7.62776C13.8527 8.38959 13.5509 9.12022 13.0136 9.65891C12.4763 10.1976 11.7477 10.5002 10.9879 10.5002H10.5008C9.74105 10.5002 9.01237 10.1976 8.47512 9.65891C7.93786 9.12022 7.63603 8.38959 7.63603 7.62776V4.6665H4.2842C3.72137 4.6665 3.16406 4.7777 2.64411 4.99374C2.12415 5.20978 1.65175 5.52643 1.25389 5.92559C0.856033 6.32476 0.540515 6.79862 0.325367 7.32009C0.110219 7.84157 -0.000341353 8.40044 7.91685e-07 8.96477V49.7017C-0.000341353 50.266 0.110219 50.8249 0.325367 51.3464C0.540515 51.8678 0.856033 52.3417 1.25389 52.7409C1.65175 53.14 2.12415 53.4567 2.64411 53.6727C3.16406 53.8888 3.72137 54 4.2842 54H39.8183C40.9546 54 42.0443 53.5474 42.8477 52.7418C43.6511 51.9362 44.1025 50.8436 44.1025 49.7043V8.96738C44.1032 8.40283 43.9929 7.84368 43.7779 7.3219C43.5629 6.80012 43.2474 6.32596 42.8495 5.92652C42.4516 5.52708 41.9791 5.21019 41.459 4.99399C40.9389 4.77779 40.3814 4.6665 39.8183 4.6665Z" fill="#FF9960"/>
<path d="M17.8037 41.8808C17.5328 41.881 17.2646 41.8275 17.0143 41.7236C16.764 41.6196 16.5367 41.4672 16.3452 41.275L3.93279 28.8294C3.57361 28.4365 3.37957 27.9197 3.39111 27.3869C3.40266 26.8541 3.61891 26.3463 3.99477 25.9694C4.37062 25.5925 4.87707 25.3757 5.40848 25.3641C5.9399 25.3526 6.45526 25.5471 6.84709 25.9073L17.8037 36.8932L37.2558 17.3917C37.6423 17.0042 38.1664 16.7865 38.7129 16.7865C39.2595 16.7865 39.7836 17.0042 40.1701 17.3917C40.5566 17.7792 40.7737 18.3047 40.7737 18.8527C40.7737 19.4007 40.5566 19.9263 40.1701 20.3138L19.2621 41.2776C19.0707 41.4695 18.8433 41.6216 18.593 41.7252C18.3427 41.8287 18.0744 41.8816 17.8037 41.8808Z" fill="white"/>
<path d="M79.5097 15.4351L93.6744 36.9254V15.2359C93.5906 14.1056 93.9109 12.9824 94.5781 12.0676C94.8804 11.7176 95.2576 11.4405 95.6815 11.2569C96.1054 11.0733 96.5651 10.988 97.0265 11.0072C97.4967 10.9852 97.9658 11.0691 98.3994 11.2525C98.8331 11.436 99.2203 11.7145 99.5326 12.0676C100.207 12.9792 100.533 14.1037 100.449 15.2359V43.9174C100.449 47.1178 99.1266 48.718 96.4817 48.718C95.8733 48.7277 95.268 48.6298 94.6935 48.4288C94.1421 48.2301 93.6364 47.9219 93.2065 47.5227C92.7262 47.0884 92.2961 46.6012 91.9246 46.0703C91.5337 45.5112 91.1363 44.9457 90.7389 44.3673L76.9074 23.1212V44.4894C76.9915 45.6257 76.646 46.7522 75.9396 47.6448C75.629 47.994 75.2461 48.2709 74.8177 48.4563C74.3893 48.6417 73.9256 48.731 73.4592 48.718C72.9876 48.7372 72.5177 48.6501 72.084 48.4633C71.6503 48.2765 71.2639 47.9946 70.9531 47.6384C70.2684 46.7381 69.9336 45.6189 70.0109 44.4894V16.3605C69.9722 15.4058 70.1069 14.4521 70.4083 13.5457C70.7292 12.79 71.2755 12.1525 71.9722 11.7206C72.6685 11.2543 73.4872 11.006 74.3245 11.0072C74.9097 10.9914 75.4914 11.1033 76.0294 11.335C76.4918 11.5448 76.9112 11.839 77.2664 12.2026C77.6741 12.6399 78.0389 13.1155 78.356 13.6228L79.5097 15.4351Z" fill="#47DFF8"/>
<path d="M124.51 11.0073C127.892 10.9143 131.239 11.7096 134.22 13.3144C136.887 14.809 139.031 17.091 140.36 19.8502C141.812 22.965 142.524 26.3743 142.443 29.8113C142.48 32.4268 142.094 35.0309 141.302 37.5231C140.591 39.7395 139.425 41.782 137.88 43.5191C136.331 45.2201 134.412 46.5396 132.271 47.375C127.343 49.179 121.936 49.1654 117.017 47.3364C114.868 46.4882 112.943 45.1557 111.39 43.442C109.839 41.6925 108.674 39.6337 107.973 37.401C107.187 34.9336 106.798 32.3565 106.82 29.7663C106.792 27.1465 107.199 24.5403 108.025 22.0545C108.754 19.8402 109.942 17.8056 111.511 16.0843C113.057 14.4251 114.957 13.1377 117.068 12.3183C119.443 11.4091 121.968 10.964 124.51 11.0073ZM134.976 29.7663C135.035 27.3886 134.598 25.0247 133.694 22.8257C132.947 21.0025 131.661 19.4526 130.009 18.385C128.359 17.3676 126.453 16.8457 124.516 16.8812C123.108 16.8711 121.714 17.1625 120.427 17.7359C119.19 18.2905 118.094 19.1188 117.222 20.1587C116.247 21.3584 115.522 22.7416 115.088 24.2267C114.545 26.0287 114.282 27.9034 114.306 29.7856C114.283 31.6867 114.546 33.5803 115.088 35.4024C115.531 36.9304 116.284 38.3502 117.299 39.5732C118.192 40.6334 119.311 41.479 120.574 42.0474C122.056 42.6738 123.664 42.9459 125.269 42.8421C126.874 42.7384 128.433 42.2617 129.823 41.4497C131.492 40.4057 132.808 38.8802 133.598 37.0733C134.59 34.7695 135.06 32.2741 134.976 29.7663Z" fill="#47DFF8"/>
<path d="M170.42 17.7359H162.389V44.2132C162.389 45.7427 162.05 46.8759 161.37 47.6128C161.037 47.9755 160.63 48.262 160.177 48.4527C159.723 48.6435 159.234 48.734 158.743 48.7181C158.244 48.7354 157.748 48.6444 157.287 48.4514C156.827 48.2584 156.414 47.968 156.076 47.5999C155.317 46.6426 154.946 45.4329 155.038 44.2132V17.7359H147.007C146.003 17.8159 145.006 17.5206 144.206 16.9069C143.903 16.6279 143.664 16.2864 143.506 15.9058C143.348 15.5252 143.274 15.1146 143.29 14.7026C143.27 14.2818 143.346 13.862 143.512 13.4748C143.677 13.0875 143.928 12.7427 144.245 12.4662C145.037 11.8686 146.018 11.5767 147.007 11.6436H170.42C171.439 11.5624 172.451 11.8649 173.26 12.4919C173.566 12.7698 173.809 13.1118 173.969 13.4938C174.13 13.8757 174.205 14.2884 174.189 14.7026C174.205 15.117 174.128 15.5297 173.965 15.9109C173.802 16.2921 173.557 16.6323 173.247 16.9069C172.436 17.518 171.432 17.8126 170.42 17.7359Z" fill="#47DFF8"/>
<path d="M178.862 44.2122V15.4857C178.771 14.2801 179.132 13.0839 179.874 12.131C180.205 11.7638 180.611 11.473 181.065 11.2788C181.518 11.0846 182.009 10.9917 182.502 11.0064C183.005 10.987 183.506 11.0763 183.972 11.2681C184.437 11.4599 184.856 11.7498 185.2 12.1182C185.954 13.0708 186.32 14.2737 186.226 15.4857V44.2122C186.318 45.43 185.953 46.6383 185.2 47.599C184.858 47.9695 184.439 48.2613 183.973 48.4543C183.508 48.6474 183.006 48.737 182.502 48.7172C182.01 48.7301 181.522 48.6356 181.07 48.4403C180.619 48.245 180.215 47.9536 179.887 47.5862C179.136 46.63 178.77 45.426 178.862 44.2122Z" fill="#47DFF8"/>
</svg>
